<?xml version="1.0" standalone="no"?>
<!DOCTYPE svg PUBLIC "-//W3C//DTD SVG 20010904//EN"
 "http://www.w3.org/TR/2001/REC-SVG-20010904/DTD/svg10.dtd">
<svg version="1.0" xmlns="http://www.w3.org/2000/svg"
 width="802.000000pt" height="308.000000pt" viewBox="0 0 802.000000 308.000000"
 preserveAspectRatio="xMidYMid meet">

<g transform="translate(0.000000,308.000000) scale(0.100000,-0.100000)"
fill="#000000" stroke="none">
<path d="M4565 2960 c-173 -154 -535 -472 -611 -537 l-62 -53 -168 0 c-298 -1
-239 24 -689 -282 -215 -146 -400 -271 -413 -277 -18 -10 -48 -10 -135 0
l-112 12 -425 -208 c-234 -114 -489 -233 -566 -265 l-142 -59 -348 -272 c-703
-550 -889 -700 -892 -719 -2 -11 0 -20 4 -20 5 0 169 74 367 165 l358 166 145
-46 144 -46 292 62 293 62 410 -205 410 -205 295 -17 295 -17 175 -97 c96 -53
182 -98 191 -100 13 -2 23 22 48 120 18 68 40 148 48 178 l16 55 26 -77 25
-78 103 0 104 0 5 30 6 29 116 3 115 3 78 180 c43 99 82 179 87 178 5 -1 70
-38 145 -83 108 -65 152 -98 215 -164 l80 -83 281 -6 281 -7 47 52 c117 128
97 117 353 200 l235 76 168 12 168 12 72 -68 c40 -37 82 -78 94 -90 l22 -24
263 64 263 64 420 -8 c231 -5 495 -9 588 -9 153 -1 167 0 166 17 0 10 -103
105 -240 222 l-239 205 -121 30 -120 29 -557 470 c-566 477 -582 489 -717 534
-50 17 -105 65 -588 508 l-532 489 -105 5 -105 5 -130 -115z"/>
</g>
</svg>
