<?xml version="1.0" standalone="no"?>
<!DOCTYPE svg PUBLIC "-//W3C//DTD SVG 20010904//EN"
 "http://www.w3.org/TR/2001/REC-SVG-20010904/DTD/svg10.dtd">
<svg version="1.0" xmlns="http://www.w3.org/2000/svg"
 width="802.000000pt" height="308.000000pt" viewBox="0 0 802.000000 308.000000"
 preserveAspectRatio="xMidYMid meet">

<g transform="translate(0.000000,308.000000) scale(0.100000,-0.100000)"
fill="#000000" stroke="none">
<path d="M4568 2962 c-204 -181 -546 -481 -610 -536 -37 -31 -58 -56 -58 -70
0 -11 19 -41 42 -65 l41 -43 69 4 c37 2 64 1 60 -3 -4 -4 -61 -53 -127 -109
-66 -56 -120 -106 -120 -111 0 -5 78 -36 174 -69 95 -33 180 -65 187 -71 11
-9 24 -3 59 25 25 21 45 40 45 44 0 12 -84 147 -96 155 -7 4 -30 39 -50 77
-21 39 -42 70 -47 70 -5 0 3 15 17 33 44 53 153 205 189 260 82 128 176 263
252 363 64 85 117 164 110 164 -2 0 -64 -53 -137 -118z"/>
<path d="M4875 2963 c-4 -26 -31 -181 -61 -344 -30 -163 -54 -306 -54 -317 0
-14 13 -29 40 -44 30 -17 55 -46 96 -112 31 -49 59 -99 64 -111 5 -12 21 -26
36 -29 42 -11 296 -127 323 -147 39 -31 66 -23 37 10 -7 9 -32 52 -56 96 -23
44 -51 92 -61 106 -23 33 -109 209 -109 223 0 13 -238 707 -244 713 -3 3 -7
-17 -11 -44z"/>
<path d="M3431 2352 c-7 -2 -188 -123 -402 -268 -213 -145 -395 -267 -403
-270 -9 -4 -16 -18 -16 -33 0 -29 174 -457 195 -479 10 -11 44 34 181 234 207
304 232 343 347 569 85 166 121 245 115 250 -2 1 -9 0 -17 -3z"/>
<path d="M3308 1916 c-32 -18 -60 -35 -64 -38 -8 -9 37 -310 50 -330 9 -13 22
23 64 183 29 110 50 204 47 209 -11 17 -38 10 -97 -24z"/>
<path d="M1935 1609 c-236 -116 -489 -234 -561 -264 l-132 -53 -348 -273
c-703 -550 -889 -700 -892 -719 -2 -11 0 -20 4 -20 19 0 714 326 714 335 0 6
43 61 95 124 53 62 99 119 103 127 4 7 129 69 277 137 378 174 345 153 399
245 25 43 46 84 46 90 0 6 17 14 38 17 20 3 57 12 82 19 25 8 198 42 385 77
187 35 341 64 342 64 2 1 -18 70 -44 153 -35 115 -50 152 -62 151 -9 0 -209
-95 -446 -210z"/>
<path d="M4825 1506 c-16 -13 -142 -105 -280 -206 -137 -100 -312 -233 -389
-294 -137 -110 -138 -111 -105 -115 41 -4 418 29 437 39 7 3 62 83 121 176
l108 169 162 70 c159 69 180 85 141 106 -8 4 -43 24 -78 43 -35 20 -68 36 -75
36 -7 0 -25 -11 -42 -24z"/>
<path d="M3216 1019 c-116 -157 -115 -151 -54 -215 l30 -32 85 83 85 82 -7
101 c-5 65 -12 105 -21 112 -10 9 -35 -18 -118 -131z"/>
</g>
</svg>
