<?xml version="1.0" standalone="no"?>
<!DOCTYPE svg PUBLIC "-//W3C//DTD SVG 20010904//EN"
 "http://www.w3.org/TR/2001/REC-SVG-20010904/DTD/svg10.dtd">
<svg version="1.0" xmlns="http://www.w3.org/2000/svg"
 width="802.000000pt" height="308.000000pt" viewBox="0 0 802.000000 308.000000"
 preserveAspectRatio="xMidYMid meet">

<g transform="translate(0.000000,308.000000) scale(0.100000,-0.100000)"
fill="#000000" stroke="none">
<path d="M4565 2960 c-173 -154 -535 -472 -611 -537 l-62 -53 -159 0 c-88 0
-187 -3 -221 -6 -56 -6 -62 -9 -73 -38 -24 -61 -173 -353 -228 -446 -31 -52
-134 -209 -229 -349 -102 -150 -171 -259 -168 -268 3 -8 64 -90 136 -183 71
-93 130 -171 130 -174 0 -3 -55 33 -122 80 -67 47 -129 89 -139 92 -9 4 -83
99 -164 212 -81 113 -151 207 -155 210 -4 3 -29 76 -55 163 -31 100 -53 157
-61 157 -7 0 -204 -93 -436 -206 -233 -113 -487 -232 -564 -264 l-142 -59
-348 -272 c-703 -550 -889 -700 -892 -719 -2 -11 0 -20 4 -20 5 0 169 74 367
165 l358 166 145 -46 144 -46 292 62 293 62 410 -205 410 -205 295 -17 295
-17 175 -97 c96 -53 182 -98 191 -100 13 -2 23 22 48 120 18 68 40 148 48 178
l16 55 26 -77 25 -78 103 0 104 0 5 30 6 29 116 3 115 3 78 180 c43 99 82 179
87 178 5 -1 70 -38 145 -83 108 -65 152 -98 215 -164 l80 -83 281 -6 281 -7
47 52 c116 126 105 120 283 177 91 29 189 62 218 73 53 20 53 20 32 35 -13 9
-97 39 -188 67 l-166 52 -73 157 -72 158 25 9 c13 5 24 12 24 15 0 2 -26 18
-57 34 -32 16 -64 39 -72 52 -19 32 -122 261 -119 265 4 3 50 -22 380 -205
132 -74 248 -135 257 -135 19 -2 461 -436 461 -452 0 -6 41 -50 91 -97 l91
-86 274 67 c272 66 274 67 252 85 -13 10 -118 90 -234 178 l-211 159 -12 78
c-7 42 -17 105 -23 139 l-10 62 -111 98 c-61 54 -124 108 -139 121 l-27 23
-83 -124 -82 -124 -83 119 -83 120 0 73 c0 69 3 78 38 132 53 79 64 101 53
107 -10 6 -267 -78 -286 -94 -17 -14 -200 189 -239 267 -17 32 -45 82 -63 110
-62 99 -101 188 -163 373 -34 102 -96 281 -137 399 -41 120 -71 221 -68 231 5
17 -2 19 -92 22 l-98 3 -130 -115z m149 -604 c32 -61 33 -96 2 -149 -33 -58
-234 -534 -242 -574 -4 -18 -13 -38 -20 -44 -8 -6 -14 -17 -14 -25 0 -7 -5
-25 -12 -41 -6 -15 -10 -32 -9 -37 1 -4 -3 -14 -9 -21 -7 -8 -7 -15 -1 -19 5
-3 88 6 186 20 97 14 182 24 190 22 8 -2 -97 -84 -233 -183 -290 -211 -451
-340 -656 -522 -82 -73 -150 -132 -151 -130 -1 1 0 166 3 367 3 225 8 356 13
341 14 -37 50 -82 63 -78 7 2 13 40 16 100 l5 96 120 -109 c66 -60 127 -109
135 -110 12 0 248 137 269 156 3 3 -28 106 -69 230 l-73 225 24 17 c13 9 37
28 53 43 l30 26 -44 74 c-23 41 -44 77 -46 80 -2 4 88 73 201 154 113 81 208
152 211 157 9 14 27 -7 58 -66z m-604 -109 c-152 -139 -287 -250 -335 -277
-33 -18 -92 -54 -131 -79 l-71 -47 -44 27 c-24 15 -56 37 -71 49 l-26 21 59
100 c32 54 59 104 59 109 0 6 8 10 18 10 9 0 94 22 187 49 151 44 181 50 270
50 83 1 97 -1 85 -12z"/>
<path d="M5970 2063 c0 -10 -22 -72 -49 -138 -27 -66 -47 -121 -46 -123 2 -2
14 2 27 9 34 18 258 191 258 199 0 8 -155 70 -176 70 -8 0 -14 -8 -14 -17z"/>
</g>
</svg>
