<?xml version="1.0" standalone="no"?>
<!DOCTYPE svg PUBLIC "-//W3C//DTD SVG 20010904//EN"
 "http://www.w3.org/TR/2001/REC-SVG-20010904/DTD/svg10.dtd">
<svg version="1.0" xmlns="http://www.w3.org/2000/svg"
 width="802.000000pt" height="308.000000pt" viewBox="0 0 802.000000 308.000000"
 preserveAspectRatio="xMidYMid meet">

<g transform="translate(0.000000,308.000000) scale(0.100000,-0.100000)"
fill="#000000" stroke="none">
<path d="M4565 2960 c-173 -154 -535 -472 -611 -537 l-62 -53 -168 0 c-298 -1
-239 24 -689 -282 -215 -146 -400 -271 -413 -277 -18 -10 -48 -10 -135 0
l-112 12 -425 -208 c-234 -114 -489 -233 -566 -265 l-142 -59 -348 -272 c-703
-550 -889 -700 -892 -719 -2 -11 0 -20 4 -20 5 0 169 74 367 165 l358 166 145
-46 144 -46 292 62 293 62 410 -205 410 -205 295 -17 295 -17 175 -97 c96 -53
182 -98 191 -100 13 -2 23 22 48 120 18 68 40 148 48 178 l16 55 26 -77 25
-78 103 0 104 0 5 30 6 29 116 3 115 3 78 180 c43 99 82 179 87 178 5 -1 70
-38 145 -83 108 -65 152 -98 215 -164 l80 -83 281 -6 281 -7 47 52 c117 128
97 117 353 200 l235 76 168 12 168 12 72 -68 c40 -37 82 -78 94 -90 l22 -24
263 64 263 64 420 -8 c231 -5 495 -9 588 -9 153 -1 167 0 166 17 0 10 -103
105 -240 222 l-239 205 -121 30 -120 29 -557 470 c-566 477 -582 489 -717 534
-50 17 -105 65 -588 508 l-532 489 -105 5 -105 5 -130 -115z m244 -261 c-32
-188 -60 -346 -61 -351 -2 -6 -59 82 -127 196 l-124 207 30 42 c16 23 62 88
102 145 l72 102 83 0 83 0 -58 -341z m631 -154 c261 -241 485 -447 496 -459
l21 -21 -51 -132 c-29 -73 -55 -135 -58 -138 -4 -5 -669 467 -706 500 -2 2
-52 160 -112 351 -61 192 -115 360 -121 374 -10 24 -9 23 23 -6 18 -17 247
-228 508 -469z m-859 368 c-34 -49 -148 -212 -254 -363 l-193 -275 -80 -3 -80
-3 -31 39 -31 38 362 326 c198 180 362 327 364 327 2 1 -24 -38 -57 -86z m378
-138 l60 -190 -92 -162 c-51 -90 -96 -163 -102 -163 -5 1 -20 9 -32 19 l-22
19 55 328 c55 329 63 368 70 349 2 -5 30 -95 63 -200z m-387 -200 l87 -145
-32 -24 c-78 -57 -379 -266 -387 -269 -14 -3 -90 115 -82 128 24 40 318 455
322 455 3 0 44 -65 92 -145z m499 -157 l33 -106 -64 -141 c-35 -78 -65 -141
-66 -141 -6 0 -117 195 -117 206 0 20 167 304 174 296 4 -4 22 -55 40 -114z
m-362 -71 l30 -53 -172 -402 c-117 -275 -174 -397 -179 -385 -6 15 -30 247
-43 415 -3 35 -15 63 -49 114 -31 47 -42 72 -35 79 22 22 395 283 406 284 6 1
25 -23 42 -52z m-800 -33 c12 -15 21 -30 21 -34 0 -4 -82 -30 -182 -58 l-181
-51 -64 56 c-34 30 -63 59 -63 62 0 4 6 15 13 24 12 17 33 19 334 25 99 2 102
1 122 -24z m-599 -224 c-94 -188 -138 -261 -298 -495 -103 -151 -189 -275
-192 -275 -3 0 -48 104 -102 231 l-96 230 396 265 c219 145 398 264 400 264 1
0 -48 -99 -108 -220z m1501 148 c8 -7 45 -63 81 -124 l65 -111 -255 -242
c-140 -132 -257 -240 -258 -238 -2 2 62 156 142 343 80 186 152 354 160 372
14 34 22 34 65 0z m422 -169 c60 -110 107 -202 105 -203 -3 -3 -329 141 -335
148 -4 4 111 256 117 256 3 0 54 -91 113 -201z m-1740 138 l57 -52 -59 -93
c-71 -113 -67 -108 -85 -92 -13 10 -27 6 -80 -24 -35 -20 -67 -36 -70 -36 -3
0 33 79 81 175 48 96 90 175 93 175 3 -1 31 -24 63 -53z m585 28 c2 -2 -43
-42 -99 -89 -56 -48 -103 -85 -105 -83 -2 2 13 44 32 94 l37 90 66 -5 c36 -2
67 -6 69 -7z m-188 -45 c-11 -27 -29 -74 -41 -102 -11 -29 -26 -59 -33 -66 -6
-7 -66 -46 -131 -86 l-119 -75 -36 22 c-86 52 -86 52 -71 80 7 14 36 60 65
103 l51 78 165 47 c91 26 166 47 167 48 2 1 -6 -21 -17 -49z m331 -86 c50 -75
88 -142 85 -149 -2 -7 -20 -24 -38 -39 l-34 -25 -154 60 c-85 34 -166 65 -178
70 -22 9 -16 16 100 114 67 58 124 105 125 105 2 0 44 -61 94 -136z m1163 -13
c102 -74 186 -137 186 -140 0 -8 -182 -74 -195 -72 -5 1 -36 50 -68 109 -32
59 -76 140 -98 180 -22 41 -34 70 -26 65 8 -4 98 -68 201 -142z m731 -91 c20
0 -9 -27 -97 -91 -138 -101 -131 -98 -108 -40 26 67 55 142 63 163 6 16 11 15
72 -7 36 -14 68 -25 70 -25z m-2080 -60 c88 -35 165 -68 171 -74 13 -12 159
-434 153 -440 -2 -2 -60 -38 -128 -80 -107 -65 -127 -74 -140 -63 -9 8 -67 58
-128 112 l-113 98 0 259 c0 204 3 259 13 255 6 -3 84 -33 172 -67z m-215 -186
l0 -236 -82 72 c-77 68 -85 79 -120 162 l-37 89 47 29 c26 16 79 49 117 74 39
25 71 45 73 45 1 1 2 -105 2 -235z m1507 82 c2 -2 -96 -65 -218 -140 -121 -76
-222 -136 -225 -133 -3 2 21 99 52 215 l56 209 167 -74 c91 -41 167 -76 168
-77z m1143 -112 c354 -296 346 -289 305 -274 -16 7 -216 81 -444 166 -228 85
-420 158 -427 162 -10 6 26 37 118 105 73 53 135 97 138 97 3 0 142 -115 310
-256z m-1515 234 c-2 -7 -29 -105 -59 -217 -31 -112 -59 -208 -63 -212 -9 -8
-379 -62 -394 -57 -7 2 508 498 518 498 1 0 0 -6 -2 -12z m-1598 -229 c-34
-129 -54 -194 -59 -182 -7 19 -50 325 -45 328 1 1 31 18 67 38 44 25 68 33 76
26 9 -7 -1 -59 -39 -210z m976 11 c8 -91 15 -166 13 -167 -1 -1 -25 64 -53
146 l-51 147 31 26 c18 14 35 23 38 19 3 -3 13 -80 22 -171z m1226 66 c-12
-58 -25 -106 -28 -106 -4 0 -39 33 -79 73 l-72 73 97 36 c54 20 100 34 101 33
2 -2 -6 -51 -19 -109z m154 47 c51 -36 96 -70 100 -74 7 -5 -222 -89 -244 -89
-3 0 6 52 20 115 13 63 26 115 28 115 2 0 45 -30 96 -67z m-2214 19 l55 -37
88 -220 88 -219 0 -583 0 -583 -83 0 -83 0 -37 133 c-52 186 -153 600 -166
677 -6 36 -19 139 -30 230 l-21 164 62 238 c34 131 64 238 67 237 3 0 31 -17
60 -37z m-235 -317 c20 -154 39 -304 42 -332 l7 -53 -104 -138 -104 -139 -142
190 -142 189 100 147 c56 80 144 210 197 288 53 78 100 139 103 135 3 -4 23
-133 43 -287z m2256 114 c0 -7 -174 -149 -182 -149 -2 0 4 66 13 148 10 81 18
149 19 152 0 7 150 -143 150 -151z m-201 -14 c-10 -82 -18 -153 -19 -157 0 -4
-33 -33 -74 -63 l-74 -56 -34 17 c-50 25 -217 128 -218 134 0 5 433 279 436
276 1 0 -7 -68 -17 -151z m-2889 6 c24 -72 42 -132 40 -134 -5 -4 -810 -165
-968 -193 -51 -9 -95 -14 -97 -12 -3 3 958 463 975 467 3 1 25 -57 50 -128z
m118 113 c17 -3 32 -7 32 -10 0 -3 -19 -51 -42 -106 l-41 -100 -38 103 c-21
57 -38 110 -38 116 -1 12 31 11 127 -3z m3508 -85 c104 -39 193 -73 198 -77
10 -5 -40 -20 -346 -101 l-148 -39 0 66 c0 63 3 72 50 145 27 42 51 77 53 77
2 0 89 -32 193 -71z m-3369 -134 c78 -187 80 -192 87 -300 4 -60 5 -107 3
-105 -25 28 -260 358 -261 365 -1 9 87 236 90 232 1 -1 37 -88 81 -192z m3089
121 l-35 -55 -68 20 c-37 10 -72 19 -78 20 -5 0 40 18 100 38 61 21 112 37
113 35 2 -1 -12 -27 -32 -58z m-73 -73 l27 -5 0 -267 0 -266 -24 25 c-14 14
-103 108 -199 209 l-175 185 105 82 105 82 67 -19 c36 -11 78 -22 94 -26z
m-1883 -217 l-1 -101 -24 45 c-24 45 -65 139 -105 239 l-21 53 76 -67 75 -67
0 -102z m2761 107 l261 -97 -243 -83 c-237 -82 -243 -83 -263 -65 -19 17 -211
186 -229 202 -5 4 4 28 19 53 27 43 32 47 104 65 41 11 79 20 83 21 5 1 125
-43 268 -96z m-512 -35 c-29 -46 -70 -112 -92 -148 -22 -36 -44 -69 -48 -74
-4 -4 -39 40 -79 99 -39 59 -70 108 -68 110 2 2 77 23 168 48 91 25 166 46
168 46 1 1 -21 -36 -49 -81z m-1087 -11 c21 -12 38 -24 38 -27 0 -3 -87 -42
-192 -87 -195 -82 -454 -186 -446 -177 3 2 112 85 244 183 l239 179 40 -24
c22 -14 57 -35 77 -47z m-2344 -148 c78 -107 144 -201 147 -209 33 -119 217
-851 214 -854 -3 -3 -123 1 -267 9 l-263 14 -317 310 c-174 170 -381 374 -460
453 l-142 143 46 75 c25 41 50 79 54 84 9 9 817 176 835 172 6 -1 74 -90 153
-197z m1902 6 c-128 -96 -235 -175 -236 -175 -4 0 95 292 101 299 6 6 291 48
339 50 24 1 -14 -32 -204 -174z m1081 -160 l34 -39 -35 20 c-19 12 -118 65
-220 119 -102 54 -193 104 -203 111 -17 11 -13 17 49 63 l68 52 136 -143 c75
-79 152 -161 171 -183z m-1631 195 c47 -41 88 -77 93 -80 5 -5 -47 -267 -66
-334 -2 -5 -40 61 -85 146 l-82 155 0 118 0 119 28 -25 c15 -14 65 -58 112
-99z m2235 -25 c55 -48 103 -91 107 -94 4 -4 23 -114 43 -246 19 -132 37 -248
39 -257 3 -13 -23 -4 -107 40 l-112 57 -128 193 -129 192 74 119 c71 116 73
119 93 102 11 -10 65 -57 120 -106z m-91 -463 c-1 -2 -86 40 -188 93 l-186 97
0 191 0 192 189 -285 c103 -157 187 -286 185 -288z m-1049 453 c20 -49 41
-100 46 -112 7 -20 -11 -13 -132 48 -78 38 -140 72 -138 74 5 4 183 82 185 81
1 -1 19 -41 39 -91z m-776 -63 l-49 -148 -103 -76 c-56 -42 -103 -75 -104 -74
-4 4 64 297 71 304 11 10 220 140 228 141 3 1 -16 -66 -43 -147z m865 24 c-4
-39 -8 -72 -9 -74 -3 -3 -75 171 -75 180 0 4 20 -2 45 -14 l45 -22 -6 -70z
m1881 -33 c96 -81 173 -148 172 -150 -5 -4 -781 129 -789 136 -5 4 396 151
440 160 1 1 81 -65 177 -146z m-3171 -127 l117 -219 -88 -82 c-49 -46 -103
-95 -121 -110 l-32 -27 0 333 c0 183 2 330 4 328 2 -2 56 -102 120 -223z
m-2274 209 c0 -3 -18 -34 -40 -69 l-40 -64 -110 41 c-60 23 -107 43 -105 46 5
5 242 48 273 50 12 1 22 -1 22 -4z m3832 -122 c120 -65 214 -119 207 -122 -6
-2 -88 2 -182 9 -149 10 -177 15 -224 38 l-53 26 5 61 c8 75 14 105 22 105 3
0 104 -53 225 -117z m-402 -3 c177 -89 211 -109 190 -114 -35 -8 -674 -116
-688 -116 -6 0 29 64 77 143 83 134 91 144 142 169 30 15 56 27 59 27 3 0 102
-49 220 -109z m-3667 22 l127 -48 -367 -169 c-515 -236 -519 -238 -508 -226 7
7 620 492 620 491 0 0 57 -22 128 -48z m1563 -132 c59 -80 101 -140 93 -134
-8 6 -60 45 -116 88 l-103 77 0 54 c0 29 -3 62 -6 72 -6 16 -5 16 8 3 8 -8 64
-80 124 -160z m1645 8 c-101 -162 -84 -151 -250 -162 l-100 -8 28 84 28 83
179 72 c98 39 184 71 191 72 7 1 -28 -63 -76 -141z m2264 27 l439 -75 333
-221 c183 -122 332 -224 330 -226 -2 -2 -246 1 -542 7 l-538 11 -224 161
c-123 88 -225 164 -228 167 -2 4 -11 54 -20 112 -9 57 -18 114 -20 126 -4 16
-1 20 13 17 9 -2 215 -38 457 -79z m-5172 -103 l137 -137 -102 -102 -103 -103
-290 -60 -290 -60 -134 40 c-74 22 -136 41 -138 43 -2 3 36 55 83 118 48 63
88 115 89 117 3 3 597 279 605 281 3 1 67 -61 143 -137z m1662 13 l15 -90 -77
-77 -76 -76 -38 46 -38 46 23 30 c12 17 56 75 96 130 41 54 75 94 77 90 1 -5
9 -49 18 -99z m-365 -65 c209 -155 193 -126 295 -550 47 -194 84 -354 83 -356
-2 -1 -72 37 -157 84 l-154 87 -102 395 c-56 217 -105 408 -109 424 -6 24 -5
27 6 19 7 -5 69 -52 138 -103z m2568 85 l207 -15 177 -182 c156 -162 174 -184
155 -190 -12 -3 -89 -11 -172 -18 l-150 -11 -185 64 -185 64 -61 146 c-65 154
-65 152 -11 156 10 0 111 -6 225 -14z m-1317 -68 l-22 -65 -72 -4 c-40 -3 -73
-4 -75 -3 -1 1 39 34 90 72 51 39 95 69 97 67 1 -1 -7 -32 -18 -67z m1073 -74
c31 -76 57 -142 57 -147 0 -5 -37 -24 -82 -42 l-82 -33 -153 146 c-85 80 -154
149 -154 153 0 8 274 57 326 59 31 1 32 0 88 -136z m2177 92 c61 -15 74 -24
195 -131 198 -177 195 -177 -51 -14 -241 159 -264 176 -230 167 11 -4 50 -13
86 -22z m-2663 -42 c-8 -10 -84 -106 -168 -213 -84 -107 -155 -198 -159 -202
-3 -4 -1 79 6 184 7 105 15 193 18 196 6 7 250 49 289 51 27 1 28 0 14 -16z
m328 -260 c-6 -6 -429 58 -438 66 -4 4 29 53 73 109 l80 102 145 -137 c79 -75
142 -138 140 -140z m1115 63 c186 -96 186 -96 350 -130 90 -18 157 -36 149
-39 -8 -4 -107 -29 -218 -57 l-204 -51 -96 90 c-92 85 -186 179 -332 335 l-65
69 115 -60 c63 -33 199 -104 301 -157z m-2831 -95 l61 -243 -48 -174 c-26 -95
-50 -170 -54 -166 -4 4 -43 160 -88 347 l-81 339 72 73 c39 40 73 71 74 70 2
-1 30 -112 64 -246z m1045 172 c-3 -43 -10 -133 -14 -201 -5 -68 -11 -126 -14
-129 -5 -5 -193 103 -259 149 l-26 18 36 109 36 109 110 10 c61 5 117 10 124
10 10 2 11 -16 7 -75z m2160 -78 c99 -71 184 -131 188 -135 5 -4 -73 9 -172
29 -99 20 -183 39 -187 43 -7 7 -33 157 -34 192 0 13 4 16 13 9 6 -5 93 -67
192 -138z m-2438 113 c-2 -7 -15 -46 -28 -85 -12 -40 -25 -73 -28 -73 -4 0
-25 36 -49 79 -48 91 -51 87 57 90 39 1 52 -2 48 -11z m-1757 -604 c0 -2 -181
86 -402 197 l-401 201 98 98 98 99 304 -296 c167 -163 303 -297 303 -299z
m1635 502 c28 -52 48 -96 45 -99 -3 -3 -83 -44 -177 -91 l-173 -86 0 72 0 73
123 112 c67 62 124 113 127 113 3 0 28 -42 55 -94z m-3192 72 c-108 -141 -149
-194 -158 -200 -21 -15 -597 -279 -600 -276 -3 2 84 73 192 158 192 152 199
157 382 242 210 98 197 92 184 76z m4023 -143 c126 -19 241 -38 256 -41 22 -4
37 -23 78 -100 58 -107 62 -86 -30 -192 l-45 -52 -76 0 c-42 0 -164 3 -272 7
l-195 6 -71 69 c-39 38 -71 74 -71 81 0 10 187 257 194 257 2 0 106 -16 232
-35z m668 -30 l149 -52 -204 -70 -204 -71 -47 87 c-26 47 -46 90 -45 95 5 15
161 74 182 69 11 -3 87 -29 169 -58z m-1515 -204 l-72 -171 -109 0 -108 0 0
85 0 85 178 89 c97 49 178 88 180 86 1 -1 -30 -79 -69 -174z"/>
</g>
</svg>
