<?xml version="1.0" standalone="no"?>
<!DOCTYPE svg PUBLIC "-//W3C//DTD SVG 20010904//EN"
 "http://www.w3.org/TR/2001/REC-SVG-20010904/DTD/svg10.dtd">
<svg version="1.0" xmlns="http://www.w3.org/2000/svg"
 width="448.000000pt" height="185.000000pt" viewBox="0 0 448.000000 185.000000"
 preserveAspectRatio="xMidYMid meet">

<g transform="translate(0.000000,185.000000) scale(0.100000,-0.100000)"
fill="#000000" stroke="none">
<path d="M1655 1840 l-310 -6 -245 -87 c-134 -48 -248 -91 -253 -96 -4 -4 8
-104 27 -222 18 -118 32 -216 30 -218 -2 -2 -123 -28 -269 -57 -146 -29 -271
-57 -278 -60 -7 -4 -90 -61 -185 -126 -154 -107 -171 -121 -160 -137 39 -54
271 -331 278 -331 4 0 215 -9 470 -20 l463 -20 143 -136 144 -136 327 7 328 6
80 -96 c43 -53 82 -98 86 -101 4 -2 187 16 406 41 355 41 417 46 577 43 l180
-3 78 124 c43 69 82 129 87 134 4 4 104 24 222 43 117 19 217 38 221 42 4 4
14 52 23 107 8 55 18 112 21 127 5 23 28 40 157 109 84 45 157 86 164 91 9 7
-8 50 -67 168 -44 87 -84 161 -90 165 -5 3 -201 62 -435 130 l-425 124 -252
16 c-240 15 -254 17 -278 39 -14 13 -104 96 -200 185 l-175 161 -290 -2 c-159
-1 -429 -5 -600 -8z m804 -24 c-2 -2 -122 -60 -266 -129 -227 -108 -262 -122
-258 -104 2 12 9 58 15 102 6 44 13 92 16 108 l6 27 245 0 c136 0 244 -2 242
-4z m171 -76 c47 -43 80 -79 74 -80 -10 0 -408 -82 -461 -95 -22 -5 -23 -2
-23 50 l0 55 153 74 c83 41 157 75 162 75 6 0 48 -35 95 -79z m-972 9 c-40
-34 -82 -67 -93 -74 -11 -7 -83 -28 -160 -45 -77 -18 -145 -35 -152 -37 -11
-4 -89 134 -81 143 2 2 47 19 99 38 l94 35 183 0 184 1 -74 -61z m277 34 c-3
-16 -12 -72 -20 -127 -7 -54 -15 -99 -17 -101 -2 -1 -71 23 -154 53 l-152 55
87 73 86 73 87 1 88 0 -5 -27z m-721 -206 l65 -137 -55 -35 c-30 -19 -58 -35
-62 -35 -4 1 -70 61 -146 134 l-139 132 129 46 c71 25 132 43 136 40 4 -4 36
-69 72 -145z m976 -95 l0 -169 -172 40 c-95 22 -175 41 -177 43 -2 1 14 31 34
65 38 61 39 62 169 125 72 35 134 64 139 64 4 0 7 -76 7 -168z m-480 109 c125
-46 132 -50 100 -55 -41 -7 -498 -76 -505 -76 -3 0 -16 23 -30 50 -19 37 -22
52 -13 55 16 6 290 72 303 74 6 1 71 -21 145 -48z m1125 -38 l95 -88 -64 -62
c-35 -35 -68 -63 -73 -63 -5 0 -72 56 -150 124 l-142 124 72 16 c40 9 90 20
112 25 22 5 43 9 47 10 4 1 50 -38 103 -86z m-1707 -208 c-35 -32 -181 -116
-188 -108 -7 7 -60 320 -60 353 0 7 59 -43 131 -110 103 -98 127 -126 117
-135z m1424 168 c43 -36 77 -68 75 -69 -5 -5 -388 -124 -398 -124 -5 0 -9 47
-9 105 0 100 1 105 23 110 126 29 195 43 212 44 11 0 55 -29 97 -66z m-684
-15 c-8 -13 -34 -55 -57 -95 -24 -40 -48 -76 -54 -81 -19 -14 -406 -116 -414
-109 -8 8 -25 208 -18 215 3 3 128 24 278 48 149 23 274 42 276 43 2 0 -3 -9
-11 -21z m1332 -63 c240 -16 297 -22 305 -34 2 -4 -72 -51 -165 -105 l-169
-97 -183 11 c-101 6 -203 13 -228 16 l-44 6 114 108 c63 60 120 109 125 109 6
1 116 -6 245 -14z m-488 -62 c29 -25 54 -49 56 -52 1 -4 -19 -27 -45 -53 -45
-42 -61 -50 -233 -107 -102 -33 -190 -61 -195 -61 -6 0 -24 42 -41 93 l-31 93
211 66 c116 37 214 67 218 67 4 1 31 -20 60 -46z m-1418 -5 c3 -24 8 -74 11
-111 l6 -68 -98 6 c-54 3 -131 8 -171 11 l-72 6 152 98 c84 55 156 99 160 99
4 1 9 -18 12 -41z m2380 -14 c50 -15 94 -29 98 -33 8 -7 32 -270 26 -276 -2
-2 -93 -29 -203 -59 l-199 -56 -77 83 c-106 115 -142 157 -138 161 30 25 378
215 388 211 8 -3 55 -17 105 -31z m-1651 -32 c92 -22 169 -41 171 -43 2 -2 17
-46 34 -98 l31 -94 -121 -128 c-66 -71 -123 -129 -126 -129 -9 0 -382 212
-382 217 0 3 43 77 96 164 73 123 100 159 112 155 10 -3 92 -23 185 -44z
m2010 -73 c117 -34 216 -64 220 -68 4 -5 -65 -62 -153 -129 l-162 -121 -53 57
-53 57 -7 85 c-3 47 -8 106 -11 133 -3 26 -3 47 1 47 4 0 102 -27 218 -61z
m-2303 25 c0 -3 -30 -56 -67 -118 l-67 -112 -196 -56 c-107 -30 -197 -54 -198
-52 -2 1 28 56 67 120 l70 118 188 52 c206 57 203 57 203 48z m1210 -90 c205
-11 200 -2 68 -125 l-113 -106 -100 -31 c-55 -17 -101 -29 -103 -27 -2 2 -1
72 3 155 l8 152 51 -6 c28 -3 112 -9 186 -12z m-275 -146 c-4 -84 -9 -156 -11
-159 -3 -5 -130 -44 -145 -44 -9 0 -209 228 -205 232 4 5 348 121 360 122 4 1
5 -67 1 -151z m-1621 9 c58 -66 104 -122 101 -127 -3 -4 -15 -10 -27 -13 -13
-3 -120 -30 -237 -61 -118 -30 -217 -54 -219 -51 -2 2 16 32 40 67 25 35 84
121 132 191 49 71 92 125 96 120 4 -4 55 -61 114 -126z m208 114 l47 -6 -65
-107 -65 -107 -92 102 c-51 56 -98 110 -106 119 -13 17 -6 18 110 12 68 -3
145 -9 171 -13z m-378 -3 c-34 -59 -119 -168 -128 -165 -6 2 -82 21 -168 43
-86 21 -155 40 -153 43 5 5 411 89 438 90 12 1 16 -3 11 -11z m3496 -128 c38
-77 70 -143 70 -147 0 -5 -23 -20 -52 -35 l-52 -28 -183 51 c-101 29 -182 53
-180 55 7 7 322 243 324 244 2 0 34 -63 73 -140z m-1101 5 l110 -120 -177 -51
-177 -51 -40 56 c-23 31 -45 62 -50 70 -6 11 20 41 101 117 60 57 112 102 116
101 4 -1 57 -56 117 -122z m-2721 -22 c103 -25 189 -47 191 -49 2 -2 -27 -46
-64 -99 -56 -81 -71 -96 -89 -91 -11 2 -135 22 -274 42 -170 26 -249 41 -242
48 17 17 274 195 283 195 4 1 92 -20 195 -46z m1827 -68 l97 -110 -113 -6
c-63 -4 -161 -7 -217 -8 l-104 -1 113 120 c62 66 116 119 120 118 4 -2 51 -52
104 -113z m-595 -17 c80 -45 157 -89 172 -98 25 -15 11 -18 -315 -54 l-342
-38 -160 50 -160 50 45 11 c58 16 131 36 380 109 113 33 212 58 220 56 8 -3
80 -42 160 -86z m2185 -58 c74 -79 133 -145 132 -146 -1 -1 -103 5 -227 12
-124 8 -230 12 -236 10 -6 -2 -58 33 -116 78 l-105 82 201 56 c111 31 204 55
209 55 4 -1 68 -67 142 -147z m-991 -28 c25 -37 79 -114 120 -171 l75 -105
-32 -21 c-18 -12 -94 -59 -170 -105 l-137 -83 -130 86 c-88 59 -131 94 -135
109 -7 33 -43 253 -41 254 0 1 87 28 191 61 119 38 194 57 201 51 7 -5 32 -39
58 -76z m524 -33 c57 -45 101 -83 99 -85 -2 -2 -63 -49 -136 -103 l-133 -100
-71 33 c-69 31 -75 37 -144 133 l-71 100 171 51 c95 28 174 51 177 51 3 1 52
-35 108 -80z m644 36 c73 -20 136 -40 140 -44 8 -7 -120 -81 -139 -81 -5 0
-45 39 -89 87 -43 48 -72 84 -62 81 9 -4 76 -23 150 -43z m-3557 -107 c7 -6
-91 -174 -119 -205 -8 -9 -35 -11 -96 -6 l-85 6 -115 140 c-63 77 -116 143
-118 147 -3 8 525 -73 533 -82z m546 21 l177 -53 -38 -106 -38 -105 -138 4
-139 3 -65 51 c-36 29 -108 85 -160 126 l-94 75 144 37 c80 20 152 33 160 29
8 -4 94 -31 191 -61z m1385 -94 c12 -71 21 -130 20 -131 0 0 -120 -35 -265
-77 l-264 -77 -65 58 c-36 31 -78 68 -93 82 l-29 25 106 120 106 120 121 6
c67 3 171 5 232 5 l109 -1 22 -130z m-522 114 c-20 -34 -188 -214 -198 -213
-6 1 -100 34 -209 75 -128 48 -190 75 -175 78 13 2 147 18 298 36 151 18 279
33 283 34 5 0 5 -4 1 -10z m-1216 -167 c73 -58 131 -106 130 -107 -3 -2 -360
13 -394 17 -19 3 -16 12 43 106 42 65 69 100 76 95 7 -4 72 -54 145 -111z
m3181 88 c84 -5 155 -11 157 -12 4 -5 -31 -227 -37 -233 -4 -3 -88 49 -389
243 l-35 22 75 -5 c41 -3 144 -10 229 -15z m-124 -125 c112 -72 202 -131 201
-132 -1 -2 -87 -16 -192 -33 l-189 -31 -143 63 c-79 35 -142 68 -141 73 3 14
242 194 253 191 5 -1 100 -60 211 -131z m-2283 49 c112 -42 204 -77 205 -78 2
-1 -100 -12 -225 -25 -125 -12 -237 -24 -249 -27 -22 -4 -21 -2 15 101 20 58
40 105 44 105 4 0 99 -34 210 -76z m1652 -201 l16 -102 -33 -90 -32 -91 -147
98 c-81 53 -148 99 -148 102 0 10 315 198 321 192 3 -4 13 -53 23 -109z m210
32 l185 -80 -172 -17 c-95 -9 -174 -14 -177 -11 -9 8 -37 194 -29 191 5 -2 91
-39 193 -83z m-1559 30 c22 -18 37 -36 35 -38 -6 -4 -332 -188 -368 -206 -21
-11 -32 -4 -143 100 -65 62 -117 115 -114 118 5 4 472 57 530 59 11 1 38 -14
60 -33z m659 -57 c-8 -40 -17 -92 -21 -115 -3 -24 -11 -47 -17 -51 -6 -5 -69
-23 -140 -41 l-128 -32 -32 35 c-17 19 -56 57 -87 84 l-57 50 237 70 c130 38
241 70 247 71 9 1 8 -19 -2 -71z m321 -105 c146 -97 264 -177 263 -179 -2 -1
-133 24 -293 55 -226 44 -290 60 -288 71 2 24 34 204 39 218 2 6 6 12 9 12 3
0 124 -79 270 -177z m-794 -5 l96 -86 -289 -7 c-159 -4 -291 -5 -293 -3 -2 2
78 50 178 106 153 86 183 99 197 89 8 -7 58 -52 111 -99z m1538 -50 c-29 -46
-63 -101 -77 -122 l-24 -39 -146 7 c-81 4 -148 9 -150 10 -2 3 57 175 64 184
1 2 153 19 372 41 6 0 -11 -36 -39 -81z m-784 -96 l290 -58 -340 -38 c-187
-20 -356 -40 -375 -42 -33 -5 -38 -1 -89 61 -29 36 -52 67 -50 69 7 5 243 64
259 64 8 1 145 -25 305 -56z"/>
</g>
</svg>
