<?xml version="1.0" standalone="no"?>
<!DOCTYPE svg PUBLIC "-//W3C//DTD SVG 20010904//EN"
 "http://www.w3.org/TR/2001/REC-SVG-20010904/DTD/svg10.dtd">
<svg version="1.0" xmlns="http://www.w3.org/2000/svg"
 width="448.000000pt" height="185.000000pt" viewBox="0 0 448.000000 185.000000"
 preserveAspectRatio="xMidYMid meet">

<g transform="translate(0.000000,185.000000) scale(0.100000,-0.100000)"
fill="#000000" stroke="none">
<path d="M2630 1634 c-63 -13 -121 -30 -128 -38 -12 -11 -1 -24 67 -82 44 -38
77 -71 73 -75 -4 -3 -97 -34 -207 -68 -109 -33 -205 -67 -212 -74 -11 -11 -8
-29 17 -102 17 -49 36 -95 43 -102 10 -10 53 1 212 52 l200 65 229 -15 228
-16 188 106 c104 58 194 112 200 120 21 26 -80 44 -344 60 l-249 16 -66 58
c-36 33 -79 73 -95 90 -17 17 -32 31 -35 30 -3 -1 -58 -12 -121 -25z"/>
<path d="M1858 1534 c-3 -3 -127 -25 -274 -50 -148 -25 -275 -51 -284 -58 -33
-29 -302 -196 -314 -196 -8 0 -19 -7 -26 -15 -10 -12 -9 -15 5 -15 10 0 90 -7
179 -16 101 -10 166 -13 176 -7 8 5 103 31 210 58 107 26 204 53 216 60 15 10
95 133 140 216 5 9 -21 30 -28 23z"/>
<path d="M4146 1074 c-87 -67 -168 -131 -179 -143 l-22 -21 105 -106 105 -106
-85 6 c-47 4 -165 11 -263 17 l-178 10 -129 -96 c-152 -113 -159 -120 -139
-140 8 -8 75 -42 149 -74 l133 -59 -54 -6 c-30 -3 -117 -11 -193 -16 -77 -6
-145 -15 -152 -21 -7 -5 -29 -51 -49 -102 -20 -51 -38 -93 -39 -94 -4 -4 -646
114 -651 119 -3 2 5 57 16 123 17 99 18 120 7 132 -11 11 -56 1 -267 -62
l-254 -75 -54 48 c-30 26 -74 64 -98 85 l-43 38 -307 -30 c-169 -17 -310 -33
-313 -36 -3 -3 3 -5 12 -5 10 0 83 -61 162 -136 l144 -136 327 7 328 6 80 -96
c43 -53 82 -98 86 -101 4 -2 187 16 406 41 355 41 417 46 577 43 l180 -3 78
124 c43 69 82 129 87 134 4 4 104 24 222 43 117 19 217 38 221 42 4 4 14 52
23 107 8 55 18 112 21 127 5 23 28 40 157 109 84 45 157 86 164 91 9 7 -8 50
-67 168 -44 87 -83 160 -87 163 -4 2 -79 -51 -167 -119z"/>
<path d="M2152 952 c-62 -66 -112 -125 -112 -131 0 -13 60 -14 278 -4 100 4
152 10 152 17 0 16 -177 230 -193 234 -8 2 -64 -51 -125 -116z"/>
<path d="M12 832 c7 -10 71 -89 142 -175 92 -113 134 -157 150 -157 11 0 160
-7 331 -15 170 -7 311 -12 313 -10 2 2 -263 220 -324 266 -8 6 -592 109 -619
109 -3 0 0 -8 7 -18z"/>
<path d="M1671 769 c-145 -16 -270 -34 -278 -41 -12 -9 -12 -13 -1 -25 12 -11
390 -153 409 -153 4 0 52 50 108 112 76 86 98 115 89 125 -13 16 -10 17 -327
-18z"/>
</g>
</svg>
