<?xml version="1.0" standalone="no"?>
<!DOCTYPE svg PUBLIC "-//W3C//DTD SVG 20010904//EN"
 "http://www.w3.org/TR/2001/REC-SVG-20010904/DTD/svg10.dtd">
<svg version="1.0" xmlns="http://www.w3.org/2000/svg"
 width="448.000000pt" height="185.000000pt" viewBox="0 0 448.000000 185.000000"
 preserveAspectRatio="xMidYMid meet">

<g transform="translate(0.000000,185.000000) scale(0.100000,-0.100000)"
fill="#000000" stroke="none">
<path d="M1655 1840 l-310 -6 -245 -87 c-134 -48 -248 -91 -253 -96 -4 -4 8
-104 27 -222 18 -118 32 -216 30 -218 -2 -2 -123 -28 -269 -57 -146 -29 -271
-57 -278 -60 -7 -4 -90 -61 -185 -126 -154 -107 -171 -121 -160 -137 39 -54
271 -331 278 -331 4 0 215 -9 470 -20 l463 -20 143 -136 144 -136 327 7 328 6
80 -96 c43 -53 82 -98 86 -101 4 -2 187 16 406 41 355 41 417 46 577 43 l180
-3 78 124 c43 69 82 129 87 134 4 4 104 24 222 43 117 19 217 38 221 42 4 4
14 52 23 107 8 55 18 112 21 127 5 23 28 40 157 109 84 45 157 86 164 91 9 7
-8 50 -67 168 -44 87 -84 161 -90 165 -5 3 -201 62 -435 130 l-425 124 -252
16 c-240 15 -254 17 -278 39 -14 13 -104 96 -200 185 l-175 161 -290 -2 c-159
-1 -429 -5 -600 -8z"/>
</g>
</svg>
