<?xml version="1.0" standalone="no"?>
<!DOCTYPE svg PUBLIC "-//W3C//DTD SVG 20010904//EN"
 "http://www.w3.org/TR/2001/REC-SVG-20010904/DTD/svg10.dtd">
<svg version="1.0" xmlns="http://www.w3.org/2000/svg"
 width="464.000000pt" height="184.000000pt" viewBox="0 0 464.000000 184.000000"
 preserveAspectRatio="xMidYMid meet">

<g transform="translate(0.000000,184.000000) scale(0.100000,-0.100000)"
fill="#000000" stroke="none">
<path d="M2926 1794 l-448 -44 -95 -87 c-52 -49 -127 -118 -167 -155 l-74 -68
-293 -35 -294 -35 -50 -53 c-28 -28 -97 -102 -155 -164 l-105 -112 -170 -61
c-93 -33 -173 -64 -177 -68 -4 -4 7 -54 23 -110 17 -57 29 -105 27 -108 -3 -2
-138 -9 -301 -15 l-297 -10 -167 -70 c-92 -38 -171 -73 -175 -77 -7 -7 88
-101 238 -235 l41 -37 448 -35 c246 -19 451 -37 454 -40 4 -2 97 -7 207 -10
l199 -7 152 -79 151 -79 684 25 684 25 229 70 c257 78 216 53 370 222 l71 77
304 51 c168 28 308 54 313 59 4 4 25 70 47 146 33 115 37 141 27 154 -7 9 -35
41 -61 71 -54 61 -62 78 -69 141 -8 72 -16 94 -106 288 l-87 186 -69 8 c-39 4
-93 10 -121 13 l-50 5 -20 71 c-10 39 -23 77 -29 84 -11 15 -571 145 -614 143
-14 -1 -228 -21 -475 -45z"/>
</g>
</svg>
