<?xml version="1.0" standalone="no"?>
<!DOCTYPE svg PUBLIC "-//W3C//DTD SVG 20010904//EN"
 "http://www.w3.org/TR/2001/REC-SVG-20010904/DTD/svg10.dtd">
<svg version="1.0" xmlns="http://www.w3.org/2000/svg"
 width="464.000000pt" height="184.000000pt" viewBox="0 0 464.000000 184.000000"
 preserveAspectRatio="xMidYMid meet">

<g transform="translate(0.000000,184.000000) scale(0.100000,-0.100000)"
fill="#000000" stroke="none">
<path d="M2926 1794 l-448 -44 -95 -87 c-52 -49 -127 -118 -167 -155 l-74 -68
-293 -35 -294 -35 -50 -53 c-28 -28 -97 -102 -155 -164 l-105 -112 -170 -61
c-93 -33 -173 -64 -177 -68 -4 -4 7 -54 23 -110 17 -57 29 -105 27 -108 -3 -2
-138 -9 -301 -15 l-297 -10 -167 -70 c-92 -38 -171 -73 -175 -77 -7 -7 88
-101 238 -235 l41 -37 448 -35 c246 -19 451 -37 454 -40 4 -2 97 -7 207 -10
l199 -7 152 -79 151 -79 684 25 684 25 229 70 c257 78 216 53 370 222 l71 77
304 51 c168 28 308 54 313 59 4 4 25 70 47 146 33 115 37 141 27 154 -7 9 -35
41 -61 71 -54 61 -62 78 -69 141 -8 72 -16 94 -106 288 l-87 186 -69 8 c-39 4
-93 10 -121 13 l-50 5 -20 71 c-10 39 -23 77 -29 84 -11 15 -571 145 -614 143
-14 -1 -228 -21 -475 -45z m674 -23 c94 -22 173 -41 176 -43 2 -2 -96 -28
-217 -57 -121 -29 -222 -51 -224 -49 -1 1 -21 40 -44 85 -41 82 -41 83 -19 88
22 4 71 10 130 13 14 1 103 -16 198 -37z m-335 -71 c38 -76 42 -90 28 -90 -10
0 -146 -7 -303 -15 -156 -8 -285 -13 -286 -12 -1 1 13 39 30 85 27 72 34 82
56 83 14 0 104 8 200 18 96 10 187 19 202 20 25 1 32 -7 73 -89z m-540 23 c-4
-10 -18 -47 -32 -83 -24 -65 -24 -65 -206 -208 -209 -165 -192 -166 -198 8
l-4 102 96 89 95 88 80 9 c43 5 101 10 128 11 42 1 47 -1 41 -16z m1235 -33
c32 -9 37 -15 53 -72 10 -35 20 -82 22 -105 2 -23 11 -80 20 -126 l15 -83 -43
-99 -43 -100 -132 -3 -131 -3 -181 242 c-100 132 -179 244 -175 247 3 4 108
33 233 64 233 58 275 63 362 38z m-449 -351 c99 -132 178 -243 176 -245 -3 -3
-143 -54 -312 -114 l-308 -110 -126 67 -127 67 119 282 120 283 76 4 c42 1
104 4 138 5 l63 2 181 -241z m-491 227 c0 -2 -51 -125 -114 -272 -78 -184
-118 -268 -127 -266 -24 6 -449 237 -449 244 0 3 77 68 172 142 153 122 176
136 212 137 54 2 278 15 294 17 6 1 12 0 12 -2z m1201 -71 l66 -6 52 -111 c28
-61 49 -113 46 -116 -6 -6 -260 39 -276 49 -6 3 -19 50 -29 104 l-18 97 47 -6
c25 -3 76 -8 112 -11z m-1959 -109 l4 -79 -53 59 -53 59 41 39 c39 36 43 38
49 20 4 -10 9 -55 12 -98z m-53 -50 c28 -33 48 -63 44 -67 -16 -15 -648 -299
-658 -295 -5 2 -43 51 -83 109 l-72 106 37 11 c21 5 178 52 348 104 171 52
315 94 321 93 6 -1 34 -29 63 -61z m-434 -17 c-126 -38 -252 -76 -278 -84
l-48 -14 40 48 c22 26 47 53 54 59 13 11 354 59 427 60 20 1 -65 -29 -195 -69z
m2480 -69 c61 -11 120 -23 132 -25 23 -5 54 -56 67 -107 l6 -28 -163 0 c-90 0
-191 3 -224 6 l-61 7 24 53 c13 29 30 70 39 89 13 32 18 36 42 31 16 -3 78
-15 138 -26z m-1683 -181 c15 -30 75 -159 132 -288 l105 -234 -37 7 c-20 3
-73 6 -117 7 l-80 0 -130 150 c-71 82 -144 167 -162 188 l-32 38 20 134 c11
74 22 144 25 157 4 22 8 21 127 -41 117 -62 123 -67 149 -118z m-327 26 c-12
-80 -24 -148 -28 -151 -3 -3 -115 -15 -249 -26 l-243 -20 -42 22 c-24 13 -43
26 -43 29 0 6 604 288 621 290 3 1 -4 -64 -16 -144z m-751 -29 l75 -109 -71
-58 -71 -58 -89 81 c-48 44 -88 83 -88 85 0 10 154 173 162 171 4 -2 41 -52
82 -112z m1376 -121 c80 -43 148 -80 152 -84 4 -4 -53 -37 -127 -74 -134 -66
-136 -67 -144 -45 -5 13 -41 94 -80 181 -39 86 -71 160 -71 163 0 3 28 -10 63
-29 34 -19 127 -70 207 -112z m932 89 c48 -20 88 -40 88 -43 -2 -39 -29 -263
-33 -267 -7 -8 -349 24 -358 33 -5 5 -26 53 -48 106 -36 88 -38 99 -23 105 33
12 277 101 282 101 2 1 44 -15 92 -35z m659 20 c4 -2 9 -21 11 -41 4 -35 0
-44 -60 -110 -54 -62 -67 -71 -83 -63 -10 6 -132 58 -271 116 -139 58 -255
108 -258 111 -6 5 652 -8 661 -13z m-3150 -136 c49 -45 87 -83 85 -85 -6 -6
-410 -133 -413 -129 -2 1 -16 45 -31 98 l-29 94 141 51 c78 28 145 52 149 52
5 1 49 -36 98 -81z m2827 -25 c100 -42 182 -79 182 -82 0 -3 -24 -32 -53 -64
l-52 -58 -158 14 c-86 8 -159 16 -161 18 -3 3 16 205 23 258 1 4 9 1 219 -86z
m-671 -142 l81 -198 -187 -5 c-102 -3 -262 -3 -355 0 l-169 5 -32 71 -33 71
127 64 c105 54 440 187 476 190 6 1 47 -88 92 -198z m1082 135 c28 -33 50 -61
48 -63 -7 -7 -320 -114 -323 -110 -5 5 210 237 217 234 3 -1 29 -29 58 -61z
m-2893 19 l63 -35 -26 -68 c-14 -37 -32 -87 -41 -111 l-15 -43 -61 5 c-33 3
-163 12 -288 18 -126 7 -228 16 -228 21 0 4 5 8 11 8 6 0 88 25 183 55 166 53
174 57 251 120 44 36 82 65 84 65 2 0 32 -16 67 -35z m743 -174 c84 -95 150
-175 148 -177 -5 -6 -699 -155 -702 -152 -1 2 -42 57 -92 123 l-89 120 40 107
c23 58 44 109 48 113 7 7 416 44 464 41 27 -1 51 -24 183 -175z m2201 53 c0
-6 -62 -228 -66 -232 -1 -3 -578 -101 -594 -102 -3 0 -27 18 -52 39 l-48 39
133 46 c72 25 240 84 372 130 250 88 255 90 255 80z m-737 -95 l288 -23 -167
-58 -167 -58 -119 0 -119 0 -15 35 c-8 20 -24 59 -35 87 l-20 50 33 -5 c18 -3
163 -16 321 -28z m-2923 -34 c0 -6 -162 -189 -171 -193 -4 -2 -87 37 -186 87
-143 72 -172 90 -148 92 34 2 361 15 448 17 31 1 57 0 57 -3z m363 -14 c164
-11 300 -21 303 -23 3 -4 -260 -308 -346 -401 -4 -5 -112 44 -239 108 l-232
116 23 28 c79 98 165 190 178 190 8 0 149 -8 313 -18z m-573 -201 c0 -3 -101
-39 -225 -80 l-224 -75 -116 107 c-64 58 -116 110 -116 114 0 4 66 35 148 69
l148 62 193 -96 c105 -53 192 -98 192 -101z m985 98 c33 -45 72 -98 87 -118
l28 -37 -82 -109 c-44 -60 -83 -111 -85 -113 -2 -3 -19 3 -38 12 -25 12 -64
17 -128 18 -51 1 -120 4 -155 8 l-63 6 183 207 c101 114 185 208 188 207 3 0
32 -36 65 -81z m1444 -27 l115 -6 124 -169 c68 -92 120 -172 115 -176 -4 -5
-62 -24 -128 -44 -117 -34 -126 -35 -380 -46 -143 -5 -291 -10 -330 -10 l-70
0 -85 105 c-47 58 -84 110 -82 116 1 6 38 64 83 130 l80 119 222 -6 c122 -4
273 -9 336 -13z m-605 -3 c-4 -7 -37 -58 -74 -113 -37 -55 -69 -105 -73 -111
-3 -6 34 -60 84 -120 l89 -109 -292 -11 c-161 -6 -293 -10 -294 -10 -9 8 -174
283 -174 291 0 34 48 50 372 120 364 80 373 81 362 63z m1196 8 c0 -5 -307
-176 -317 -176 -8 0 -122 149 -131 172 -2 4 98 8 222 8 124 0 226 -2 226 -4z
m131 -53 l36 -30 -93 -104 c-93 -103 -95 -104 -177 -132 -45 -15 -87 -25 -93
-23 -14 5 -108 135 -103 140 2 2 85 49 184 104 150 85 182 99 195 89 8 -7 31
-27 51 -44z m-2901 -148 l205 -105 -75 6 c-41 3 -230 18 -420 33 l-345 27 210
71 c116 39 212 72 215 72 3 0 97 -47 210 -104z m899 -144 c45 -70 81 -131 81
-135 0 -3 -14 -6 -31 -6 -19 0 -75 23 -140 57 l-108 57 30 40 c17 23 43 58 57
78 15 21 28 38 29 38 1 0 38 -58 82 -129z"/>
</g>
</svg>
