<?xml version="1.0" standalone="no"?>
<!DOCTYPE svg PUBLIC "-//W3C//DTD SVG 20010904//EN"
 "http://www.w3.org/TR/2001/REC-SVG-20010904/DTD/svg10.dtd">
<svg version="1.0" xmlns="http://www.w3.org/2000/svg"
 width="464.000000pt" height="184.000000pt" viewBox="0 0 464.000000 184.000000"
 preserveAspectRatio="xMidYMid meet">

<g transform="translate(0.000000,184.000000) scale(0.100000,-0.100000)"
fill="#000000" stroke="none">
<path d="M4032 1185 l-52 -106 -118 6 -117 7 31 -21 c17 -11 149 -73 294 -136
145 -63 265 -117 266 -118 2 -1 -13 -23 -33 -47 -19 -25 -43 -55 -53 -68 l-18
-22 -362 26 c-199 14 -364 23 -368 19 -5 -5 21 -89 53 -166 6 -15 -6 -18 -97
-23 -179 -11 -315 -11 -608 -3 l-285 8 -360 -76 c-198 -41 -362 -79 -366 -83
-23 -26 -179 -244 -179 -250 0 -4 54 -35 119 -70 l119 -62 684 25 684 25 229
70 c257 78 216 53 370 222 l71 77 304 51 c168 28 308 54 313 59 4 4 25 70 47
146 33 115 37 141 27 154 -7 9 -35 41 -61 71 -55 62 -62 77 -70 146 -7 67 -36
153 -61 182 -4 5 -309 62 -330 62 -16 0 -32 -24 -73 -105z"/>
<path d="M2590 1088 c0 -28 163 -378 176 -378 27 0 274 130 274 144 0 13 -414
246 -438 246 -7 0 -12 -6 -12 -12z"/>
<path d="M1505 885 c-69 -57 -92 -69 -177 -95 -54 -16 -143 -44 -198 -61 -55
-17 -102 -35 -105 -40 -13 -20 55 -29 322 -44 227 -13 279 -14 289 -3 19 19
94 197 94 223 0 16 -16 28 -65 53 -36 18 -69 32 -73 32 -4 0 -43 -29 -87 -65z"/>
<path d="M521 349 c-123 -43 -227 -81 -229 -84 -3 -3 -3 -7 0 -10 3 -3 200
-21 439 -40 239 -19 454 -38 478 -42 l45 -6 -20 20 c-21 23 -456 243 -476 242
-7 0 -114 -36 -237 -80z"/>
</g>
</svg>
